<?xml version="1.0" standalone="no"?>
<!DOCTYPE svg PUBLIC "-//W3C//DTD SVG 20010904//EN"
 "http://www.w3.org/TR/2001/REC-SVG-20010904/DTD/svg10.dtd">
<svg version="1.0" xmlns="http://www.w3.org/2000/svg"
 width="1200.000000pt" height="630.000000pt" viewBox="0 0 1200.000000 630.000000"
 preserveAspectRatio="xMidYMid meet">

<g transform="translate(0.000000,630.000000) scale(0.100000,-0.100000)"
fill="#000000" stroke="none">
<path d="M3131 4634 c-134 -28 -292 -125 -372 -227 -96 -121 -134 -235 -133
-402 0 -173 41 -297 136 -422 162 -213 499 -284 810 -172 64 23 58 12 83 169
19 122 19 130 -4 130 -13 0 -21 -9 -25 -32 -9 -47 -48 -127 -81 -166 -99 -117
-295 -135 -485 -45 -228 109 -358 397 -307 680 50 272 256 448 522 447 201 -1
316 -81 356 -246 7 -31 16 -48 26 -48 12 0 14 19 8 128 -4 70 -10 130 -14 133
-11 12 -157 59 -231 74 -87 18 -203 18 -289 -1z"/>
<path d="M4337 4635 c-108 -27 -185 -73 -278 -165 -64 -64 -94 -103 -122 -160
-135 -274 -91 -566 118 -776 121 -123 249 -176 420 -176 154 1 279 55 395 172
85 85 130 155 168 262 23 64 26 89 26 208 1 105 -3 147 -17 190 -70 208 -204
354 -393 426 -86 33 -228 41 -317 19z m248 -62 c197 -69 335 -298 352 -583 21
-354 -181 -596 -481 -578 -145 9 -253 75 -339 206 -138 210 -165 502 -67 719
57 124 189 231 312 252 63 11 168 4 223 -16z"/>
<path d="M1540 4601 c0 -15 10 -20 54 -25 39 -5 60 -14 77 -32 l24 -26 3 -491
c2 -337 0 -504 -8 -530 -13 -44 -39 -63 -102 -72 -36 -5 -48 -11 -48 -23 0
-16 33 -17 432 -16 l433 1 33 133 c18 73 30 135 28 138 -14 13 -35 -12 -54
-66 -29 -79 -91 -138 -155 -147 -24 -4 -111 -5 -193 -3 -162 3 -191 11 -228
61 -20 28 -21 40 -24 463 -4 467 2 557 38 586 11 9 45 20 75 23 45 6 55 11 55
26 0 18 -11 19 -220 19 -209 0 -220 -1 -220 -19z"/>
<path d="M5240 4602 c0 -16 9 -21 53 -26 28 -4 59 -13 68 -19 43 -32 44 -43
47 -482 2 -231 1 -457 -3 -503 -9 -109 -28 -133 -108 -140 -53 -4 -57 -6 -57
-29 l0 -25 303 5 c224 4 320 9 372 21 226 52 414 225 471 436 28 102 24 255
-9 348 -68 194 -209 332 -412 400 -79 26 -83 26 -402 30 -315 3 -323 3 -323
-16z m639 -57 c199 -47 335 -179 386 -372 20 -76 20 -238 0 -332 -41 -193
-167 -330 -354 -385 -37 -11 -94 -16 -173 -16 -133 0 -188 15 -207 56 -8 18
-11 178 -11 544 l0 519 38 4 c65 8 255 -3 321 -18z"/>
<path d="M6590 4601 c0 -20 25 -30 75 -31 34 -1 56 -15 73 -47 19 -34 17 -992
-2 -1037 -15 -36 -54 -56 -112 -56 -29 0 -34 -4 -34 -23 l0 -23 431 1 431 0
23 90 c13 50 31 109 39 133 13 37 13 44 1 48 -21 8 -32 -2 -45 -44 -25 -78
-59 -123 -113 -148 -49 -22 -63 -24 -225 -24 -191 0 -235 10 -253 57 -5 13 -9
130 -9 259 l0 235 160 -3 c189 -4 194 -6 211 -106 9 -50 15 -62 30 -62 18 0
19 10 19 195 0 181 -1 195 -18 195 -13 0 -22 -14 -32 -57 -22 -84 -44 -93
-227 -93 l-143 0 0 256 0 256 183 -4 c251 -5 270 -15 297 -156 10 -49 16 -62
29 -60 14 3 16 23 19 136 l3 132 -406 0 c-390 0 -405 -1 -405 -19z"/>
<path d="M3260 2517 c-45 -29 -68 -72 -84 -149 -9 -48 -18 -65 -34 -73 -29
-13 -28 -25 3 -25 l25 0 0 -112 c0 -62 -4 -118 -8 -124 -4 -6 -17 -15 -30 -19
-39 -12 -15 -20 64 -20 78 -1 104 8 57 20 -16 3 -31 12 -35 18 -4 7 -8 63 -8
125 l0 112 45 0 c33 0 45 4 45 15 0 11 -12 15 -45 15 l-45 0 0 65 c0 40 6 78
15 96 14 26 21 29 55 27 48 -2 70 13 50 37 -17 20 -31 19 -70 -8z"/>
<path d="M2465 2509 c-36 -17 -38 -19 -18 -25 26 -7 33 -30 33 -116 l0 -68
-26 10 c-66 26 -147 -5 -191 -72 -22 -33 -28 -53 -28 -98 0 -123 102 -189 201
-131 43 26 42 26 46 -3 3 -24 4 -24 41 -9 40 16 49 33 17 33 -19 0 -20 7 -20
250 0 138 -3 250 -7 249 -5 0 -26 -9 -48 -20z m-5 -235 c11 -11 15 -39 15
-117 l0 -102 -39 -19 c-81 -40 -156 16 -156 116 0 71 35 128 85 141 29 7 78
-3 95 -19z"/>
<path d="M5628 2512 c-42 -19 -49 -32 -18 -32 19 0 20 -7 20 -225 0 -214 -1
-225 -20 -237 -34 -21 -23 -28 45 -28 63 0 85 12 45 25 -19 6 -20 15 -20 261
0 140 -3 254 -7 253 -5 0 -25 -8 -45 -17z"/>
<path d="M9000 2303 c-97 -275 -95 -272 -125 -283 -46 -17 -27 -30 45 -30 70
0 93 12 45 24 -32 8 -32 35 -4 110 l22 56 88 0 88 0 21 -66 c26 -84 25 -92 -5
-100 -50 -12 -23 -24 55 -24 81 0 103 12 56 30 -14 5 -31 19 -39 32 -8 13 -47
121 -87 241 -39 119 -75 217 -80 217 -4 0 -40 -93 -80 -207z m116 5 l33 -98
-79 0 -79 0 30 86 c47 133 51 141 57 124 3 -8 20 -59 38 -112z"/>
<path d="M4490 2486 c-27 -33 18 -72 48 -42 13 13 14 20 6 34 -15 23 -38 26
-54 8z"/>
<path d="M6380 2485 c-19 -23 -8 -50 20 -50 19 0 26 6 28 24 5 35 -26 53 -48
26z"/>
<path d="M7445 2480 c3 -5 15 -10 25 -10 34 0 40 -33 40 -229 0 -178 -1 -192
-20 -211 -11 -11 -27 -20 -36 -20 -8 0 -12 -4 -9 -10 3 -5 42 -10 85 -10 43 0
82 5 85 10 3 6 -1 10 -9 10 -9 0 -25 9 -36 20 -17 17 -20 33 -20 100 l0 80 55
0 c106 0 165 49 165 138 0 58 -20 93 -68 120 -35 19 -54 22 -151 22 -72 0
-110 -4 -106 -10z m210 -24 c18 -8 41 -26 50 -40 19 -29 22 -104 6 -135 -17
-30 -63 -51 -116 -51 l-45 0 0 113 c0 63 3 117 7 120 11 12 62 8 98 -7z"/>
<path d="M7800 2484 c0 -3 13 -10 29 -15 31 -11 28 -5 126 -244 87 -212 97
-235 105 -235 4 0 29 47 56 105 27 58 51 105 54 105 3 0 25 -47 49 -105 24
-58 47 -105 51 -105 9 0 2 -18 101 250 54 144 87 221 102 232 22 17 21 18 -35
18 -57 0 -78 -13 -38 -23 11 -3 20 -12 20 -20 0 -11 -83 -243 -130 -362 -12
-30 -12 -30 -50 65 -22 52 -39 102 -39 111 -1 31 79 187 107 208 l27 20 -68 1
c-43 0 -66 -4 -62 -10 3 -5 15 -10 26 -10 27 0 24 -23 -15 -108 l-34 -73 -31
75 c-35 83 -38 106 -16 106 8 0 15 5 15 10 0 6 -30 10 -70 10 -40 0 -70 -4
-70 -10 0 -5 8 -10 19 -10 26 0 34 -12 84 -130 l45 -104 -35 -75 c-19 -42 -37
-82 -40 -88 -3 -7 -8 -13 -12 -13 -8 0 -151 371 -151 393 0 9 6 17 14 17 8 0
18 5 21 10 4 6 -23 10 -74 10 -45 0 -81 -2 -81 -6z"/>
<path d="M8520 2481 c0 -5 12 -11 28 -13 l27 -3 3 -218 2 -219 -30 -11 c-50
-19 -34 -27 55 -27 89 0 105 8 55 27 l-30 11 0 106 0 106 56 0 c64 0 94 -13
94 -40 0 -10 5 -22 10 -25 6 -4 10 24 10 76 0 83 -3 89 -24 47 -10 -20 -20
-23 -79 -26 l-67 -3 0 101 0 100 68 0 c74 0 115 -15 120 -45 8 -45 22 -37 22
13 l0 52 -160 0 c-92 0 -160 -4 -160 -9z"/>
<path d="M6165 2349 c-5 -20 -18 -37 -36 -48 -36 -20 -37 -31 -4 -31 l25 0 0
-123 c0 -86 4 -129 13 -141 19 -25 79 -24 114 3 l27 22 -44 -7 c-62 -10 -70 5
-70 138 l0 108 55 0 c42 0 55 3 55 15 0 12 -13 15 -55 15 l-55 0 0 40 c0 47
-16 53 -25 9z"/>
<path d="M1631 2303 c-71 -35 -113 -131 -92 -210 28 -103 137 -136 227 -68 41
32 39 43 -5 21 -47 -25 -113 -21 -144 8 -54 50 -57 153 -7 210 38 42 98 43
136 3 27 -29 44 -28 44 3 0 44 -96 64 -159 33z"/>
<path d="M1960 2313 c-63 -25 -109 -95 -110 -163 0 -49 38 -121 77 -143 19
-11 52 -18 83 -19 202 -1 215 314 13 328 -26 2 -55 1 -63 -3z m105 -35 c78
-62 72 -226 -11 -265 -99 -48 -189 93 -139 215 30 71 96 93 150 50z"/>
<path d="M2688 2305 c-40 -23 -69 -78 -75 -143 -6 -72 24 -136 79 -164 46 -24
112 -12 146 27 32 37 27 50 -9 23 -65 -48 -147 -18 -169 61 -22 80 -22 80 93
83 l102 3 -2 34 c-3 70 -98 114 -165 76z m80 -11 c12 -4 30 -20 38 -37 21 -39
9 -47 -78 -47 -59 0 -68 2 -68 18 0 25 47 67 80 71 3 0 15 -2 28 -5z"/>
<path d="M3428 2300 c-65 -35 -97 -114 -78 -193 36 -140 223 -164 291 -37 25
45 25 125 0 170 -22 42 -90 80 -140 80 -20 -1 -52 -10 -73 -20z m121 -15 c62
-31 84 -168 38 -236 -30 -44 -84 -60 -121 -35 -82 53 -96 196 -26 259 34 30
67 34 109 12z"/>
<path d="M3763 2302 c-34 -16 -43 -32 -19 -32 21 0 26 -23 26 -120 0 -105 -10
-140 -41 -140 -12 0 -19 -3 -15 -7 9 -9 166 -11 166 -2 0 3 -15 10 -32 15
l-33 10 -3 100 c-3 96 -2 101 23 124 22 21 30 23 53 14 36 -14 52 -7 52 21 0
45 -53 41 -107 -8 l-23 -20 0 31 c0 36 -1 36 -47 14z"/>
<path d="M4229 2291 c-54 -55 -36 -109 56 -161 78 -45 89 -110 20 -118 -49 -6
-73 6 -86 43 -14 38 -35 49 -25 13 3 -13 6 -33 6 -45 0 -27 52 -45 105 -36 84
14 116 105 55 156 -16 14 -40 29 -52 33 -74 22 -101 79 -53 110 33 22 92 4
101 -32 8 -31 24 -31 24 1 0 67 -97 90 -151 36z"/>
<path d="M4493 2302 c-35 -16 -43 -32 -18 -32 13 0 15 -20 15 -124 0 -116 -1
-125 -20 -131 -39 -12 -19 -22 45 -22 64 0 84 10 45 22 -19 6 -20 15 -20 156
0 82 -3 148 -7 148 -5 -1 -23 -9 -40 -17z"/>
<path d="M4696 2313 c-4 -5 -22 -13 -39 -20 -31 -11 -31 -12 -9 -19 22 -6 23
-9 20 -127 -3 -114 -4 -122 -25 -133 -34 -16 -17 -24 54 -24 62 0 83 12 43 25
-18 6 -20 15 -20 116 l0 109 33 20 c36 22 68 25 98 10 17 -10 19 -22 19 -130
0 -110 -1 -119 -20 -125 -40 -13 -18 -25 45 -25 63 0 85 12 45 25 -18 6 -20
15 -20 119 l0 112 35 17 c81 39 112 18 121 -79 9 -96 -1 -161 -27 -169 -39
-13 -17 -25 46 -25 63 0 85 12 46 25 -17 5 -19 18 -22 131 -4 125 -4 126 -33
151 -36 31 -76 27 -133 -11 -34 -24 -38 -24 -47 -8 -27 49 -81 52 -147 7 l-39
-25 0 30 c0 29 -9 38 -24 23z"/>
<path d="M5870 2299 c-58 -26 -80 -47 -80 -76 0 -34 19 -28 35 11 17 39 62 61
99 46 27 -10 36 -29 36 -73 0 -31 -3 -33 -67 -56 -79 -29 -113 -58 -113 -100
0 -64 74 -84 147 -40 32 20 32 20 43 -1 12 -22 40 -26 71 -10 26 14 24 30 -2
23 -33 -9 -39 13 -39 138 0 98 -3 118 -17 132 -30 26 -65 28 -113 6z m90 -199
c0 -45 -3 -51 -30 -65 -57 -30 -110 -15 -110 31 0 25 17 41 69 65 62 30 71 26
71 -31z"/>
<path d="M6407 2313 c-4 -6 -22 -15 -40 -19 l-32 -7 23 -15 c21 -14 22 -21 22
-132 l0 -118 -25 -6 c-14 -4 -23 -10 -21 -15 7 -11 136 -11 136 0 0 5 -3 9 -7
9 -33 1 -38 21 -43 167 -3 81 -8 143 -13 136z"/>
<path d="M6587 2313 c-4 -6 -21 -14 -37 -18 -35 -8 -39 -20 -10 -28 19 -5 20
-14 20 -121 0 -114 -1 -117 -25 -128 -13 -6 -22 -14 -20 -18 7 -11 135 -9 135
1 0 5 -4 9 -9 9 -5 0 -17 7 -25 16 -12 12 -16 38 -16 115 l0 99 41 20 c53 27
99 23 116 -10 13 -26 18 -167 7 -207 -3 -12 -15 -25 -25 -28 -38 -12 -17 -22
46 -22 72 0 88 8 50 25 -24 11 -25 15 -25 109 0 191 -38 230 -156 163 l-53
-29 -3 32 c-2 19 -6 27 -11 20z"/>
<path d="M6974 2311 c-65 -28 -85 -121 -38 -168 l27 -27 -22 -17 c-27 -22 -27
-65 -1 -81 18 -12 18 -13 -10 -38 -40 -34 -47 -69 -20 -103 73 -93 290 -28
290 86 0 51 -57 77 -168 77 -49 0 -64 4 -69 16 -12 31 12 49 71 55 40 5 64 13
81 29 29 27 41 80 26 109 -11 20 -9 21 24 21 58 0 45 26 -17 33 -133 15 -154
16 -174 8z m105 -35 c28 -30 31 -84 8 -120 -14 -21 -25 -26 -57 -26 -49 0 -70
27 -70 87 0 77 70 111 119 59z m59 -302 c22 -15 29 -49 14 -70 -38 -54 -180
-61 -214 -10 -15 22 -7 55 18 75 34 27 147 30 182 5z"/>
<path d="M5212 2303 c-10 -4 -7 -9 10 -17 22 -11 23 -18 28 -140 5 -118 7
-129 28 -147 28 -22 69 -17 130 18 l42 24 0 -26 c0 -26 19 -32 68 -19 27 8 29
24 2 24 -28 0 -32 28 -28 169 l3 121 -35 0 c-48 0 -70 -15 -36 -24 l26 -6 0
-110 0 -110 -40 -20 c-47 -24 -83 -26 -104 -4 -13 12 -16 41 -16 145 l0 129
-32 -1 c-18 0 -39 -3 -46 -6z"/>
</g>
</svg>
